<svg xmlns="http://www.w3.org/2000/svg" xmlns:xlink="http://www.w3.org/1999/xlink" width="500" zoomAndPan="magnify" viewBox="0 0 375 374.999991" height="500" preserveAspectRatio="xMidYMid meet" version="1.0"><defs><clipPath id="4deaea9d55"><path d="M 33.328125 0.726562 L 341.476562 0.726562 L 341.476562 374.226562 L 33.328125 374.226562 Z M 33.328125 0.726562 " clip-rule="nonzero"/></clipPath></defs><g clip-path="url(#4deaea9d55)"><path fill="#212529" d="M 299.527344 153.9375 C 299.527344 222.136719 237.804688 277.492188 161.675781 277.492188 C 126.371094 277.492188 92.710938 266.285156 64.796875 244.773438 C 57.035156 238.722656 49.796875 232.074219 43.75 224.601562 C 51.363281 250.300781 62.933594 275.175781 78.53125 297.210938 C 103.011719 332.019531 137.046875 359.960938 179.363281 374.226562 L 179.363281 317.007812 C 179.363281 312.597656 182.945312 309.015625 187.351562 309.015625 C 229.894531 309.015625 268.480469 291.683594 296.394531 263.746094 C 324.160156 235.808594 341.398438 197.410156 341.398438 154.832031 C 341.398438 112.253906 324.082031 73.707031 296.320312 45.769531 C 268.40625 18.058594 229.894531 0.726562 187.351562 0.726562 C 144.808594 0.726562 106.445312 18.058594 78.53125 45.769531 C 50.617188 73.707031 33.300781 112.328125 33.300781 154.90625 C 33.300781 157.96875 33.523438 161.183594 33.523438 164.394531 C 36.585938 190.988281 52.109375 214.742188 74.722656 232.074219 C 77.410156 234.164062 80.246094 236.03125 83.082031 237.972656 L 83.082031 139.667969 C 83.082031 113.226562 95.25 89.320312 114.582031 71.992188 C 133.761719 54.882812 160.183594 44.203125 189.441406 44.203125 C 211.085938 44.203125 231.609375 50.101562 248.851562 60.5625 C 266.167969 71.167969 279.972656 86.257812 288.183594 104.632812 C 291.765625 112.253906 294.675781 120.394531 296.542969 128.390625 C 298.632812 136.832031 299.527344 145.347656 299.527344 153.9375 Z M 299.527344 153.9375 " fill-opacity="1" fill-rule="nonzero"/></g><path fill="#212529" d="M 161.675781 261.355469 C 228.921875 261.355469 283.40625 213.25 283.40625 153.9375 C 283.40625 146.542969 282.4375 139.296875 280.945312 132.273438 C 279.226562 125.027344 276.765625 118.003906 273.554688 111.359375 L 273.332031 111.132812 C 266.6875 95.894531 254.894531 83.195312 240.492188 74.457031 C 225.863281 65.492188 208.023438 60.410156 189.441406 60.410156 C 164.363281 60.410156 141.597656 69.527344 125.253906 84.015625 C 109.28125 98.210938 99.207031 118.003906 99.207031 139.667969 L 99.207031 247.085938 C 118.164062 255.976562 139.808594 261.355469 161.675781 261.355469 Z M 159.4375 178.664062 C 156.601562 179.78125 153.539062 180.53125 150.332031 180.53125 C 136.820312 180.53125 126 169.472656 126 156.175781 C 126 142.65625 136.820312 131.824219 150.332031 131.824219 C 163.617188 131.824219 174.664062 142.65625 174.664062 156.175781 C 174.664062 161.332031 172.945312 166.039062 170.257812 170.070312 C 169.886719 165.886719 166.304688 162.675781 162.125 162.675781 C 157.570312 162.675781 153.765625 166.261719 153.765625 170.820312 C 153.691406 174.480469 156.152344 177.691406 159.4375 178.664062 Z M 224.519531 180.53125 C 211.011719 180.53125 200.1875 169.472656 200.1875 156.175781 C 200.1875 142.65625 211.011719 131.824219 224.519531 131.824219 C 238.027344 131.824219 248.851562 142.65625 248.851562 156.175781 C 248.851562 161.332031 247.359375 166.039062 244.445312 170.070312 C 244.074219 165.886719 240.492188 162.675781 236.3125 162.675781 C 231.757812 162.675781 228.175781 166.261719 228.175781 170.820312 C 228.175781 174.40625 230.488281 177.691406 233.847656 178.585938 C 231.011719 179.78125 227.804688 180.53125 224.519531 180.53125 Z M 224.519531 180.53125 " fill-opacity="1" fill-rule="nonzero"/></svg>